# xmcd CD database file generated by OrangeCD 5.2
#
# Track frame offsets:
#	150
#	19140
#	37980
#	54681
#	74813
#	96198
#	116353
#	135218
#	163868
#	183063
#	204714
#	226226
#	244598
#
# Disc length: 3692 seconds
#
# Revision: 0
# Processed by: cddbd v1.5.1PL0 Copyright (c) Steve Scherf et al.
# Submitted via: OrangeCD 5.2
#
DISCID=ab0e6a0d
DTITLE=John Hammond Jnr. - Bishopstock Blues Festival 2000
DYEAR=2000
DGENRE=Blues
TTITLE0=Just Your Fool
TTITLE1=Kind Hearted Woman
TTITLE2=Tell Me Mama
TTITLE3=I've Been Your Dog Mama
TTITLE4=Drop Down Mama
TTITLE5=Come In My Kitchen
TTITLE6=Mother-in-Law Blues
TTITLE7=Love Changin' Blues
TTITLE8=Homeless Blues
TTITLE9=Someday Baby Blues
TTITLE10=Walking Blues
TTITLE11=Hard Time Killing Floor Blues
TTITLE12=Gonna Get Me Religion
EXTD=
EXTT0=
EXTT1=
EXTT2=
EXTT3=
EXTT4=
EXTT5=
EXTT6=
EXTT7=
EXTT8=
EXTT9=
EXTT10=
EXTT11=
EXTT12=
PLAYORDER=
